<mxfile host="Electron" agent="Mozilla/5.0 (Macintosh; Intel Mac OS X 10_15_7) AppleWebKit/537.36 (KHTML, like Gecko) draw.io/26.1.1 Chrome/132.0.6834.210 Electron/34.3.3 Safari/537.36" version="26.1.1">
  <diagram name="Page-1" id="j4jokaY2JAhkPuwnaY-N">
    <mxGraphModel dx="1434" dy="907" grid="1" gridSize="10" guides="1" tooltips="1" connect="1" arrows="1" fold="1" page="1" pageScale="1" pageWidth="850" pageHeight="1100" math="0" shadow="0">
      <root>
        <mxCell id="0" />
        <mxCell id="1" parent="0" />
        <mxCell id="d0C0ZKM33GUoCB9rtivs-17" style="edgeStyle=orthogonalEdgeStyle;rounded=0;orthogonalLoop=1;jettySize=auto;html=1;entryX=0.5;entryY=0;entryDx=0;entryDy=0;labelBackgroundColor=none;strokeColor=#A8201A;fontColor=default;sketch=1;curveFitting=1;jiggle=2;" edge="1" parent="1">
          <mxGeometry relative="1" as="geometry">
            <mxPoint x="214" y="324" as="sourcePoint" />
            <mxPoint x="214" y="385" as="targetPoint" />
          </mxGeometry>
        </mxCell>
        <mxCell id="d0C0ZKM33GUoCB9rtivs-25" value="Spwans" style="edgeLabel;html=1;align=center;verticalAlign=middle;resizable=0;points=[];labelBackgroundColor=none;fontColor=#143642;sketch=1;curveFitting=1;jiggle=2;" vertex="1" connectable="0" parent="d0C0ZKM33GUoCB9rtivs-17">
          <mxGeometry x="0.0164" y="3" relative="1" as="geometry">
            <mxPoint as="offset" />
          </mxGeometry>
        </mxCell>
        <mxCell id="d0C0ZKM33GUoCB9rtivs-34" style="edgeStyle=orthogonalEdgeStyle;rounded=0;orthogonalLoop=1;jettySize=auto;html=1;exitX=0.75;exitY=0;exitDx=0;exitDy=0;entryX=0.75;entryY=1;entryDx=0;entryDy=0;labelBackgroundColor=none;strokeColor=#A8201A;fontColor=default;sketch=1;curveFitting=1;jiggle=2;" edge="1" parent="1" source="d0C0ZKM33GUoCB9rtivs-3" target="d0C0ZKM33GUoCB9rtivs-27">
          <mxGeometry relative="1" as="geometry" />
        </mxCell>
        <mxCell id="d0C0ZKM33GUoCB9rtivs-37" value="Returns results&lt;div&gt;&amp;nbsp;&lt;span style=&quot;background-color: light-dark(#ffffff, var(--ge-dark-color, #121212)); color: light-dark(rgb(0, 0, 0), rgb(255, 255, 255));&quot;&gt;from workers&lt;/span&gt;&lt;/div&gt;&lt;div&gt;&lt;span style=&quot;background-color: light-dark(#ffffff, var(--ge-dark-color, #121212)); color: light-dark(rgb(0, 0, 0), rgb(255, 255, 255));&quot;&gt;on single stream&lt;/span&gt;&lt;/div&gt;" style="edgeLabel;html=1;align=center;verticalAlign=middle;resizable=0;points=[];labelBackgroundColor=none;fontColor=#143642;sketch=1;curveFitting=1;jiggle=2;" vertex="1" connectable="0" parent="d0C0ZKM33GUoCB9rtivs-34">
          <mxGeometry y="-1" relative="1" as="geometry">
            <mxPoint x="1" as="offset" />
          </mxGeometry>
        </mxCell>
        <mxCell id="d0C0ZKM33GUoCB9rtivs-3" value="Multipler" style="swimlane;fontStyle=1;align=center;verticalAlign=top;childLayout=stackLayout;horizontal=1;startSize=26;horizontalStack=0;resizeParent=1;resizeParentMax=0;resizeLast=0;collapsible=1;marginBottom=0;whiteSpace=wrap;html=1;labelBackgroundColor=none;fillColor=#FAE5C7;strokeColor=#0F8B8D;fontColor=#143642;sketch=1;curveFitting=1;jiggle=2;" vertex="1" parent="1">
          <mxGeometry x="160" y="234" width="210" height="90" as="geometry">
            <mxRectangle x="120" y="150" width="90" height="30" as="alternateBounds" />
          </mxGeometry>
        </mxCell>
        <mxCell id="d0C0ZKM33GUoCB9rtivs-5" value="" style="line;strokeWidth=1;fillColor=none;align=left;verticalAlign=middle;spacingTop=-1;spacingLeft=3;spacingRight=3;rotatable=0;labelPosition=right;points=[];portConstraint=eastwest;strokeColor=#0F8B8D;labelBackgroundColor=none;fontColor=#143642;sketch=1;curveFitting=1;jiggle=2;" vertex="1" parent="d0C0ZKM33GUoCB9rtivs-3">
          <mxGeometry y="26" width="210" height="8" as="geometry" />
        </mxCell>
        <mxCell id="d0C0ZKM33GUoCB9rtivs-6" value="AddWorker(Worker)&lt;div&gt;Multiplex() - MultiplexedResultSteam&lt;/div&gt;" style="text;strokeColor=none;fillColor=none;align=left;verticalAlign=top;spacingLeft=4;spacingRight=4;overflow=hidden;rotatable=0;points=[[0,0.5],[1,0.5]];portConstraint=eastwest;whiteSpace=wrap;html=1;labelBackgroundColor=none;fontColor=#143642;sketch=1;curveFitting=1;jiggle=2;" vertex="1" parent="d0C0ZKM33GUoCB9rtivs-3">
          <mxGeometry y="34" width="210" height="56" as="geometry" />
        </mxCell>
        <mxCell id="d0C0ZKM33GUoCB9rtivs-8" value="N Worker&amp;nbsp;" style="swimlane;fontStyle=1;align=center;verticalAlign=top;childLayout=stackLayout;horizontal=1;startSize=26;horizontalStack=0;resizeParent=1;resizeParentMax=0;resizeLast=0;collapsible=1;marginBottom=0;whiteSpace=wrap;html=1;labelBackgroundColor=none;fillColor=#FAE5C7;strokeColor=#0F8B8D;fontColor=#143642;sketch=1;curveFitting=1;jiggle=2;" vertex="1" parent="1">
          <mxGeometry x="158" y="385" width="210" height="60" as="geometry" />
        </mxCell>
        <mxCell id="d0C0ZKM33GUoCB9rtivs-10" value="" style="line;strokeWidth=1;fillColor=none;align=left;verticalAlign=middle;spacingTop=-1;spacingLeft=3;spacingRight=3;rotatable=0;labelPosition=right;points=[];portConstraint=eastwest;strokeColor=#0F8B8D;labelBackgroundColor=none;fontColor=#143642;sketch=1;curveFitting=1;jiggle=2;" vertex="1" parent="d0C0ZKM33GUoCB9rtivs-8">
          <mxGeometry y="26" width="210" height="8" as="geometry" />
        </mxCell>
        <mxCell id="d0C0ZKM33GUoCB9rtivs-11" value="Work() - ResultStream" style="text;strokeColor=none;fillColor=none;align=left;verticalAlign=top;spacingLeft=4;spacingRight=4;overflow=hidden;rotatable=0;points=[[0,0.5],[1,0.5]];portConstraint=eastwest;whiteSpace=wrap;html=1;labelBackgroundColor=none;fontColor=#143642;sketch=1;curveFitting=1;jiggle=2;" vertex="1" parent="d0C0ZKM33GUoCB9rtivs-8">
          <mxGeometry y="34" width="210" height="26" as="geometry" />
        </mxCell>
        <mxCell id="d0C0ZKM33GUoCB9rtivs-35" style="edgeStyle=orthogonalEdgeStyle;rounded=0;orthogonalLoop=1;jettySize=auto;html=1;exitX=0.25;exitY=1;exitDx=0;exitDy=0;entryX=0.25;entryY=0;entryDx=0;entryDy=0;labelBackgroundColor=none;strokeColor=#A8201A;fontColor=default;sketch=1;curveFitting=1;jiggle=2;" edge="1" parent="1" source="d0C0ZKM33GUoCB9rtivs-27" target="d0C0ZKM33GUoCB9rtivs-3">
          <mxGeometry relative="1" as="geometry" />
        </mxCell>
        <mxCell id="d0C0ZKM33GUoCB9rtivs-36" value="Adds Workers&lt;div&gt;Uses Multiplexer&lt;/div&gt;" style="edgeLabel;html=1;align=center;verticalAlign=middle;resizable=0;points=[];labelBackgroundColor=none;fontColor=#143642;sketch=1;curveFitting=1;jiggle=2;" vertex="1" connectable="0" parent="d0C0ZKM33GUoCB9rtivs-35">
          <mxGeometry x="0.087" y="2" relative="1" as="geometry">
            <mxPoint as="offset" />
          </mxGeometry>
        </mxCell>
        <mxCell id="d0C0ZKM33GUoCB9rtivs-27" value="Client" style="rounded=0;whiteSpace=wrap;html=1;labelBackgroundColor=none;fillColor=#FAE5C7;strokeColor=#0F8B8D;fontColor=#143642;sketch=1;curveFitting=1;jiggle=2;" vertex="1" parent="1">
          <mxGeometry x="160" y="70" width="210" height="60" as="geometry" />
        </mxCell>
        <mxCell id="d0C0ZKM33GUoCB9rtivs-38" value="" style="text;strokeColor=none;fillColor=none;align=left;verticalAlign=middle;spacingTop=-1;spacingLeft=4;spacingRight=4;rotatable=0;labelPosition=right;points=[];portConstraint=eastwest;fontFamily=Architects Daughter;fontSource=https%3A%2F%2Ffonts.googleapis.com%2Fcss%3Ffamily%3DArchitects%2BDaughter;fontColor=#143642;sketch=1;curveFitting=1;jiggle=2;labelBackgroundColor=none;" vertex="1" parent="1">
          <mxGeometry x="120" y="278" width="20" height="14" as="geometry" />
        </mxCell>
        <mxCell id="d0C0ZKM33GUoCB9rtivs-39" value="" style="text;strokeColor=none;fillColor=none;align=left;verticalAlign=middle;spacingTop=-1;spacingLeft=4;spacingRight=4;rotatable=0;labelPosition=right;points=[];portConstraint=eastwest;fontFamily=Architects Daughter;fontSource=https%3A%2F%2Ffonts.googleapis.com%2Fcss%3Ffamily%3DArchitects%2BDaughter;fontColor=#143642;sketch=1;curveFitting=1;jiggle=2;labelBackgroundColor=none;" vertex="1" parent="1">
          <mxGeometry x="390" y="278" width="20" height="14" as="geometry" />
        </mxCell>
        <mxCell id="d0C0ZKM33GUoCB9rtivs-40" value="" style="text;strokeColor=none;fillColor=none;align=left;verticalAlign=middle;spacingTop=-1;spacingLeft=4;spacingRight=4;rotatable=0;labelPosition=right;points=[];portConstraint=eastwest;fontFamily=Architects Daughter;fontSource=https%3A%2F%2Ffonts.googleapis.com%2Fcss%3Ffamily%3DArchitects%2BDaughter;fontColor=#143642;sketch=1;curveFitting=1;jiggle=2;labelBackgroundColor=none;" vertex="1" parent="1">
          <mxGeometry x="250" y="459" width="20" height="14" as="geometry" />
        </mxCell>
        <mxCell id="d0C0ZKM33GUoCB9rtivs-41" value="" style="text;strokeColor=none;fillColor=none;align=left;verticalAlign=middle;spacingTop=-1;spacingLeft=4;spacingRight=4;rotatable=0;labelPosition=right;points=[];portConstraint=eastwest;fontFamily=Architects Daughter;fontSource=https%3A%2F%2Ffonts.googleapis.com%2Fcss%3Ffamily%3DArchitects%2BDaughter;fontColor=#143642;sketch=1;curveFitting=1;jiggle=2;labelBackgroundColor=none;" vertex="1" parent="1">
          <mxGeometry x="255" y="40" width="20" height="14" as="geometry" />
        </mxCell>
        <mxCell id="d0C0ZKM33GUoCB9rtivs-45" style="edgeStyle=orthogonalEdgeStyle;rounded=0;orthogonalLoop=1;jettySize=auto;html=1;exitX=0.75;exitY=0;exitDx=0;exitDy=0;entryX=0.743;entryY=1;entryDx=0;entryDy=0;entryPerimeter=0;fillColor=#FAE5C7;strokeColor=#A8201A;sketch=1;curveFitting=1;jiggle=2;labelBackgroundColor=none;fontColor=default;" edge="1" parent="1" source="d0C0ZKM33GUoCB9rtivs-8" target="d0C0ZKM33GUoCB9rtivs-6">
          <mxGeometry relative="1" as="geometry" />
        </mxCell>
        <mxCell id="d0C0ZKM33GUoCB9rtivs-46" value="Returns results&lt;div&gt;&amp;nbsp;&lt;font color=&quot;#000000&quot;&gt;&lt;span style=&quot;background-color: rgb(255, 255, 255);&quot;&gt;on its stream&lt;/span&gt;&lt;/font&gt;&lt;/div&gt;" style="edgeLabel;html=1;align=center;verticalAlign=middle;resizable=0;points=[];labelBackgroundColor=none;fontColor=#143642;sketch=1;curveFitting=1;jiggle=2;" vertex="1" connectable="0" parent="1">
          <mxGeometry x="311" y="358" as="geometry" />
        </mxCell>
      </root>
    </mxGraphModel>
  </diagram>
</mxfile>
